# xmcd
# 
# Track frame offsets:
#     151
#     38755
#     47385
#     80407
#     113141
#     126987
#     164040
#     174741
# 
# Disc length: 2666
# 
# Revision: 0
# Processed by: cddbd v1.5.2PL0 Copyright (c) Steve Scherf et al.
# Submitted via: fre:ac v1.0.31
# 
DISCID=650a6808
DTITLE=Rainbow - Come Back To The Rainbow [CD2]
DYEAR=1980
DGENRE=Hard Rock
TTITLE0=Don Airy keyboards solo - Lost In Hollywood
TTITLE1=Beethoven's 9th Symphony
TTITLE2=Don Airy keyboards solo
TTITLE3=Cozy Powell Drums solo "1812 overture" - Lost In Hollywood (rep.)
TTITLE4=Lazy -
TTITLE5=All Night Long
TTITLE6=Long Live Rock'n'Roll
TTITLE7=Kill The King - Guitar Crush - Long Live Rock'n'Roll (rep.)
EXTD=
EXTT0=
EXTT1=
EXTT2=
EXTT3=
EXTT4=
EXTT5=
EXTT6=
EXTT7=
PLAYORDER=
